<mxfile host="app.diagrams.net" modified="2024-06-25T03:25:15.673Z" agent="Mozilla/5.0 (Windows NT 10.0; Win64; x64) AppleWebKit/537.36 (KHTML, like Gecko) Chrome/126.0.0.0 Safari/537.36 Edg/126.0.0.0" etag="wCu8G8yoVBfMY9pvi6Aq" version="24.6.2" type="github">
  <diagram name="第 1 页" id="NqgVfmGTkQCIiaYDpoP2">
    <mxGraphModel dx="1213" dy="746" grid="1" gridSize="10" guides="1" tooltips="1" connect="1" arrows="1" fold="1" page="1" pageScale="1" pageWidth="827" pageHeight="1169" math="0" shadow="0">
      <root>
        <mxCell id="0" />
        <mxCell id="1" parent="0" />
        <mxCell id="3mhjlBh3lIDY1klt2XZA-1" value="2" style="rounded=0;whiteSpace=wrap;html=1;fillColor=#d5e8d4;strokeColor=#82b366;fontSize=25;" vertex="1" parent="1">
          <mxGeometry x="280" y="240" width="160" height="200" as="geometry" />
        </mxCell>
        <mxCell id="3mhjlBh3lIDY1klt2XZA-2" value="3" style="rounded=0;whiteSpace=wrap;html=1;fillColor=#fff2cc;strokeColor=#d6b656;fontSize=25;" vertex="1" parent="1">
          <mxGeometry x="440" y="240" width="40" height="200" as="geometry" />
        </mxCell>
      </root>
    </mxGraphModel>
  </diagram>
</mxfile>
